<?xml version="1.0" encoding="UTF-8"?>
<svg id="Capa_2" data-name="Capa 2" xmlns="http://www.w3.org/2000/svg" viewBox="0 0 666.05 124.61">
  <defs>
    <style>
      .cls-1 {
        fill: #f15a24;
      }

      .cls-2 {
        fill: #232323;
      }
    </style>
  </defs>
  <g id="Capa_1-2" data-name="Capa 1">
    <g>
      <path class="cls-2" d="M21.47,124.6V36.32l58.63,88.28h21.49V.01h-21.49v88.29L21.65.01H0v124.59h21.47Z"/>
      <path class="cls-2" d="M250.87,20.13h36.48v104.48h21.82V20.13h36.48V.01h-94.76v20.12h-.01ZM219.69,124.6v-20.12h-55.56v-33.07h49.77v-19.26h-49.77V20.12h55.56V0h-77.38v124.59h77.38Z"/>
      <path class="cls-2" d="M607.09,37.17c1.19-3.41,2.22-7.16,2.72-9.55.35,2.56,1.54,6.31,2.56,9.55l14.32,40.22h-33.74l14.14-40.22ZM576.4,124.6l10.05-28.8h46.53l10.05,28.8h23.01L621.06.01h-22.32l-44.99,124.59h22.67-.01ZM529.71,124.6v-20.12h-63.06l62.04-85.05V0h-87.26v20.12h60.17l-61.52,84.19v20.28h89.65-.01Z"/>
      <path class="cls-1" d="M391.49,124.61c5.74,0,10.4-4.65,10.4-10.4s-4.65-10.4-10.4-10.4-10.4,4.65-10.4,10.4,4.66,10.4,10.4,10.4Z"/>
      <path class="cls-2" d="M401.88,95.78V.01h-20.8v95.77c2.89-2.19,6.49-3.5,10.4-3.5s7.5,1.31,10.4,3.5Z"/>
    </g>
  </g>
</svg>